<svg width="1466" height="1466" viewBox="0 0 1466 1466" fill="none" xmlns="http://www.w3.org/2000/svg">
<path fill-rule="evenodd" clip-rule="evenodd" d="M704.831 356.013C698.419 362.431 703.105 374.094 712.097 374.094C717.424 374.094 722.898 368.509 722.898 363.074C722.898 357.707 717.973 353 712.359 353C709.849 353 706.504 354.339 704.831 356.013ZM546.537 369.414C538.893 375.431 539.783 385.534 548.348 389.965C556.927 394.405 566.317 388.954 566.317 379.535C566.317 369.003 554.646 363.03 546.537 369.414ZM630.412 371.941C626.9 375.457 627.418 382.525 631.393 385.309C635.984 388.528 638.111 388.267 642.417 383.956C646.901 379.471 647.075 376.564 643.102 372.588C639.493 368.976 633.671 368.681 630.412 371.941ZM817.23 372.33C813.674 376.263 814.085 382.505 818.085 385.309C822.704 388.549 825.701 388.25 829.532 384.169C833.603 379.831 833.68 376.477 829.794 372.588C826.036 368.827 820.5 368.714 817.23 372.33ZM929.14 392.261C927.077 399.923 919.086 408.911 911.148 412.492C902.744 416.286 903.265 419.494 913.197 425.105C922.04 430.099 926.236 435.036 929.071 443.782C930.626 448.581 931.555 449.432 935.244 449.432C939.027 449.432 939.792 448.665 941.189 443.473C943.27 435.737 948.101 430.165 957.579 424.571C966.215 419.473 967.365 415.794 961.015 413.577C953.985 411.126 945.458 402.495 941.731 394.062C938.871 387.59 937.555 386.148 934.509 386.148C931.429 386.148 930.5 387.206 929.14 392.261ZM526.623 404.339C518.285 410.901 523.179 425.324 533.744 425.324C544.199 425.324 549.107 412.483 541.543 404.915C537.028 400.395 531.885 400.196 526.623 404.339ZM715.37 417.294C651.068 421.893 598.047 448.204 555.671 496.543C515.454 542.418 491.982 598.831 484.996 666.404C484.01 675.934 482.911 684.697 482.551 685.877C481.372 689.752 468.632 675.44 459.856 660.377C446.383 637.253 444.656 635.127 435.859 630.819C426.654 626.311 418.943 626.366 409.166 631.01C396.293 637.123 391.09 655.853 397.659 672.431C405.682 692.677 428.983 720.425 451.039 736.003C463.077 744.505 474.683 750.782 478.364 750.782C480.612 750.782 480.775 753.653 480.099 781.293C479.263 815.365 477.616 824.237 468.843 841.94C462.315 855.113 451.816 869.063 433.12 889.402C410.92 913.554 394.616 939.366 392.265 954.086C391.605 958.214 392.128 960.452 394.41 963.272L397.426 967H733.434H1069.44L1072.94 962.936C1077.45 957.682 1076.45 952.876 1067.21 935.501C1058.74 919.572 1048.03 905.22 1029.99 885.635C1004.89 858.39 994.49 842.098 988.621 820.845C985.891 810.957 983.689 755.804 985.914 753.042C986.581 752.213 990.378 750.003 994.351 748.13C1029.12 731.735 1066.98 688.69 1070.2 661.883C1071.86 648.039 1065.21 635.413 1053.43 630.061C1045.11 626.277 1038.02 626.541 1029.2 630.96C1021.43 634.855 1017.23 640.097 1007.46 658.117C1000.86 670.285 993.081 680.778 987.951 684.433L983.728 687.444L981.966 672.78C974.369 609.575 959.465 565.638 932.014 525.523C887.962 461.148 825.291 423.891 750.909 417.858C731.992 416.324 729.495 416.285 715.37 417.294ZM464.924 477.803C459.817 483.45 463.319 491.998 470.74 491.998C476.115 491.998 480.97 486.534 479.629 481.994C477.598 475.119 469.45 472.797 464.924 477.803ZM1006.37 486.623C1001.55 487.598 995.408 495.566 995.408 500.851C995.408 515.265 1012.57 522.548 1022.25 512.244C1033.12 500.655 1022.42 483.383 1006.37 486.623ZM423.858 522.886C421.354 533.335 415.731 540.027 405.596 544.615C397.254 548.391 397.173 552.026 405.348 555.715C412.963 559.152 420.714 568.001 423.106 575.987C424.662 581.185 425.506 582.026 429.174 582.026C432.957 582.026 433.653 581.244 435.389 575.044C437.671 566.882 444.549 559.384 453.293 555.524C461.18 552.042 461.196 548.63 453.346 545.086C445.518 541.555 437.509 532.636 435.181 524.863C433.602 519.585 432.765 518.742 429.1 518.742C425.708 518.742 424.65 519.579 423.858 522.886ZM1033.48 574.793C1028.57 580.921 1029.62 588.488 1035.82 591.696C1044.97 596.43 1054.44 586.615 1049.42 577.609C1047.74 574.608 1045.88 573.638 1041.15 573.287C1037.46 573.014 1034.43 573.609 1033.48 574.793Z" fill="#FFF1D5"/>
<path fill-rule="evenodd" clip-rule="evenodd" d="M712.097 374.094C703.105 374.094 698.419 362.431 704.831 356.013C706.503 354.339 709.849 353 712.359 353C717.973 353 722.898 357.707 722.898 363.074C722.898 368.509 717.423 374.094 712.097 374.094ZM548.348 389.965C539.783 385.534 538.893 375.431 546.537 369.415C554.646 363.03 566.317 369.003 566.317 379.535C566.317 388.954 556.927 394.405 548.348 389.965ZM631.393 385.309C627.418 382.525 626.9 375.457 630.411 371.941C633.671 368.681 639.493 368.976 643.102 372.588C647.075 376.564 646.901 379.471 642.417 383.956C638.111 388.267 635.984 388.528 631.393 385.309ZM818.085 385.309C814.085 382.505 813.674 376.263 817.23 372.33C820.5 368.714 826.036 368.827 829.794 372.588C833.68 376.477 833.603 379.831 829.532 384.169C825.7 388.25 822.704 388.549 818.085 385.309ZM911.148 412.492C919.086 408.911 927.077 399.923 929.14 392.261C930.499 387.206 931.428 386.148 934.509 386.148C937.555 386.148 938.87 387.59 941.731 394.062C945.457 402.495 953.985 411.126 961.015 413.577C967.365 415.794 966.215 419.473 957.579 424.571C948.101 430.165 943.27 435.737 941.189 443.473C939.792 448.665 939.027 449.432 935.244 449.432C931.555 449.432 930.626 448.581 929.071 443.782C926.236 435.036 922.04 430.099 913.197 425.105C903.265 419.494 902.744 416.286 911.148 412.492ZM533.744 425.324C523.179 425.324 518.285 410.901 526.623 404.339C531.885 400.196 537.028 400.395 541.543 404.915C549.107 412.483 544.199 425.324 533.744 425.324ZM555.671 496.543C598.047 448.204 651.068 421.893 715.37 417.294C729.495 416.285 731.991 416.324 750.909 417.858C825.291 423.891 887.962 461.148 932.014 525.523C959.465 565.638 974.369 609.575 981.966 672.78L983.728 687.444L987.951 684.433C993.08 680.778 1000.86 670.285 1007.46 658.117C1017.23 640.097 1021.43 634.855 1029.2 630.96C1038.02 626.541 1045.11 626.277 1053.43 630.061C1065.21 635.413 1071.86 648.039 1070.2 661.883C1066.98 688.69 1029.12 731.735 994.351 748.13C990.378 750.003 986.581 752.213 985.914 753.042C983.689 755.804 985.891 810.957 988.621 820.845C994.49 842.098 1004.89 858.391 1029.99 885.636C1048.03 905.22 1058.74 919.572 1067.21 935.501C1076.45 952.876 1077.45 957.682 1072.93 962.936L1069.44 967H733.434H397.426L394.41 963.272C392.128 960.452 391.605 958.214 392.265 954.086C394.616 939.366 410.92 913.554 433.12 889.402C451.816 869.063 462.315 855.113 468.843 841.94C477.616 824.237 479.263 815.365 480.099 781.293C480.775 753.653 480.612 750.782 478.364 750.782C474.683 750.782 463.077 744.505 451.039 736.003C428.983 720.425 405.682 692.677 397.659 672.431C391.09 655.853 396.293 637.123 409.166 631.01C418.943 626.366 426.654 626.311 435.859 630.819C444.656 635.127 446.383 637.253 459.856 660.377C468.632 675.44 481.372 689.752 482.551 685.877C482.911 684.697 484.01 675.934 484.996 666.404C491.982 598.831 515.454 542.418 555.671 496.543ZM870.729 521.846C847.533 483.454 812.158 457.844 765.054 445.341C746.713 440.473 706.821 439.126 687.517 442.724C660.805 447.702 626.414 462.027 619.973 470.859C617.462 474.305 617.265 475.574 618.739 478.812C619.702 480.93 621.557 483.075 622.859 483.573C624.196 484.087 632.875 480.82 642.82 476.059C669.143 463.457 687.212 459.378 716.875 459.342C736.094 459.318 742.57 459.905 753.574 462.675C778.275 468.893 804.395 482.407 810.234 491.99C812.412 495.566 813.224 499.579 813.227 506.803C813.234 520.219 815.879 522.729 830.849 523.528C842.989 524.176 847.245 526.837 852.482 537.057C855.667 543.272 862.036 548.877 865.911 548.877C867.334 548.877 870.293 547.214 872.483 545.183C878.233 539.849 877.754 533.472 870.729 521.846ZM470.74 491.998C463.319 491.998 459.817 483.45 464.924 477.802C469.45 472.797 477.598 475.119 479.629 481.994C480.97 486.534 476.115 491.998 470.74 491.998ZM995.408 500.851C995.408 495.566 1001.55 487.598 1006.37 486.623C1022.42 483.383 1033.12 500.655 1022.24 512.244C1012.57 522.548 995.408 515.265 995.408 500.851ZM405.596 544.615C415.731 540.027 421.354 533.335 423.858 522.886C424.65 519.579 425.708 518.742 429.1 518.742C432.765 518.742 433.602 519.585 435.181 524.863C437.509 532.636 445.518 541.555 453.346 545.086C461.196 548.63 461.18 552.042 453.293 555.524C444.549 559.384 437.671 566.881 435.389 575.044C433.653 581.244 432.957 582.026 429.174 582.026C425.506 582.026 424.662 581.185 423.106 575.987C420.714 568.001 412.963 559.152 405.348 555.715C397.173 552.026 397.254 548.391 405.596 544.615ZM1035.82 591.696C1029.62 588.488 1028.57 580.921 1033.48 574.793C1034.43 573.609 1037.46 573.014 1041.15 573.287C1045.88 573.638 1047.74 574.608 1049.42 577.609C1054.44 586.615 1044.97 596.43 1035.82 591.696ZM639.743 618.307C637.58 609.544 626.619 598.034 618.26 595.745C610.559 593.637 606.042 593.735 599.267 596.159C581.299 602.584 572.587 620.901 579.768 637.149C585.87 650.955 595.214 657.363 609.241 657.363C630.098 657.363 644.755 638.595 639.743 618.307ZM888.322 618.815C885.999 609.575 875.546 598.608 866.506 595.921C855.801 592.74 845.564 594.802 836.705 601.919C814.258 619.958 827.871 657.363 856.882 657.363C878.355 657.363 893.385 638.934 888.322 618.815ZM724.653 622.459C721.064 627.257 716.675 632.089 714.902 633.198C711.893 635.078 710.978 634.461 701.382 624.064L691.086 612.914L691.594 634.009C692.149 657.081 693.033 660.071 701.987 669.161C721.427 688.895 757.233 683.983 769.952 659.839C772.769 654.49 773.299 650.74 773.658 633.632C773.889 622.651 773.478 613.668 772.746 613.668C772.014 613.668 767.583 618.414 762.901 624.215C758.217 630.016 753.484 634.762 752.382 634.762C751.281 634.762 746.737 630.234 742.284 624.7C737.832 619.166 733.512 614.434 732.684 614.187C731.856 613.939 728.243 617.662 724.653 622.459ZM925.769 795.323C925.254 790.631 923.953 787.15 922.252 785.905C915.833 781.209 911.351 785.146 910.779 795.984L910.343 804.271L902.107 804.738C892.396 805.288 890.017 806.87 890.017 812.78C890.017 817.983 894.171 820.092 904.418 820.092H911.096V828.146C911.096 836.16 913.897 841.186 918.366 841.186C922.691 841.186 926.151 835.16 926.151 827.626V820.092H933.026C941.714 820.092 945.724 817.974 945.724 813.382C945.724 806.381 944.3 805.026 936.906 805.002C933.06 804.988 929.167 804.481 928.252 803.872C927.335 803.263 926.219 799.415 925.769 795.323ZM532.597 848.422C535.075 843.624 533.666 839.338 528.743 836.701C527.16 835.853 525.561 835.16 525.191 835.16C524.486 835.16 520.533 838.399 496.293 858.84C488.218 865.647 475.942 874.993 469.012 879.61C458.192 886.814 456.41 888.599 456.41 892.235C456.41 898.056 461.139 902.107 466.392 900.789C479.203 897.571 526.552 860.117 532.597 848.422ZM668.625 763.07V890.981C668.625 893.944 671.008 896.346 673.948 896.346H700.644C703.584 896.346 705.968 893.944 705.968 890.981V845.194H755.4V890.981C755.4 893.944 757.783 896.346 760.723 896.346H787.419C790.359 896.346 792.743 893.944 792.743 890.981V763.07C792.743 760.106 790.359 757.704 787.419 757.704H760.723C757.783 757.704 755.4 760.106 755.4 763.07V809.779H705.968V763.07C705.968 760.106 703.584 757.704 700.644 757.704H673.948C671.008 757.704 668.625 760.106 668.625 763.07Z" fill="url(#paint0_linear_1302_538)"/>
<path d="M175 1257.85C172.239 1257.85 170 1255.61 170 1252.85V1069C170 1066.24 172.239 1064 175 1064H217.628C220.389 1064 222.628 1066.24 222.628 1069V1134.72C222.628 1137.48 224.866 1139.72 227.628 1139.72H287.293C290.054 1139.72 292.293 1137.48 292.293 1134.72V1069C292.293 1066.24 294.531 1064 297.293 1064H339.92C342.682 1064 344.92 1066.24 344.92 1069V1252.85C344.92 1255.61 342.682 1257.85 339.92 1257.85H297.293C294.531 1257.85 292.293 1255.61 292.293 1252.85V1187.13C292.293 1184.37 290.054 1182.13 287.293 1182.13H227.628C224.866 1182.13 222.628 1184.37 222.628 1187.13V1252.85C222.628 1255.61 220.389 1257.85 217.628 1257.85H175Z" fill="url(#paint1_linear_1302_538)"/>
<path d="M396.233 1257.85C393.471 1257.85 391.233 1255.61 391.233 1252.85V1069C391.233 1066.24 393.471 1064 396.233 1064H525.942C528.703 1064 530.942 1066.24 530.942 1069V1101.4C530.942 1104.17 528.703 1106.4 525.942 1106.4H448.86C446.099 1106.4 443.86 1108.64 443.86 1111.4V1134.72C443.86 1137.48 446.099 1139.72 448.86 1139.72H518.748C521.51 1139.72 523.748 1141.96 523.748 1144.72V1177.13C523.748 1179.89 521.51 1182.13 518.748 1182.13H448.86C446.099 1182.13 443.86 1184.37 443.86 1187.13V1210.45C443.86 1213.21 446.099 1215.45 448.86 1215.45H525.563C528.325 1215.45 530.563 1217.68 530.563 1220.45V1252.85C530.563 1255.61 528.325 1257.85 525.563 1257.85H396.233Z" fill="url(#paint2_linear_1302_538)"/>
<path d="M583.366 1257.85C580.605 1257.85 578.366 1255.61 578.366 1252.85V1069C578.366 1066.24 580.605 1064 583.366 1064H625.994C628.755 1064 630.994 1066.24 630.994 1069V1210.45C630.994 1213.21 633.233 1215.45 635.994 1215.45H704.367C707.129 1215.45 709.367 1217.68 709.367 1220.45V1252.85C709.367 1255.61 707.129 1257.85 704.367 1257.85H583.366Z" fill="url(#paint3_linear_1302_538)"/>
<path d="M756.964 1257.85C754.203 1257.85 751.964 1255.61 751.964 1252.85V1069C751.964 1066.24 754.203 1064 756.964 1064H835.639C850.026 1064 862.615 1066.84 873.406 1072.52C884.196 1078.2 892.589 1086.18 898.583 1096.47C904.578 1106.75 907.576 1118.77 907.576 1132.53C907.576 1146.41 904.484 1158.43 898.299 1168.59C892.179 1178.75 883.565 1186.58 872.459 1192.07C861.416 1197.56 848.511 1200.3 833.745 1200.3H788.768C786.007 1200.3 783.768 1198.06 783.768 1195.3V1164.41C783.768 1161.65 786.007 1159.41 788.768 1159.41H823.144C829.328 1159.41 834.597 1158.34 838.951 1156.19C843.369 1153.98 846.745 1150.86 849.079 1146.82C851.477 1142.78 852.676 1138.02 852.676 1132.53C852.676 1126.98 851.477 1122.24 849.079 1118.33C846.745 1114.36 843.369 1111.33 838.951 1109.24C834.597 1107.1 829.328 1106.03 823.144 1106.03H809.592C806.831 1106.03 804.592 1108.26 804.592 1111.03V1252.85C804.592 1255.61 802.353 1257.85 799.592 1257.85H756.964Z" fill="url(#paint4_linear_1302_538)"/>
<path d="M953.209 1257.85C950.447 1257.85 948.209 1255.61 948.209 1252.85V1069C948.209 1066.24 950.447 1064 953.209 1064H1082.92C1085.68 1064 1087.92 1066.24 1087.92 1069V1101.4C1087.92 1104.17 1085.68 1106.4 1082.92 1106.4H1005.84C1003.07 1106.4 1000.84 1108.64 1000.84 1111.4V1134.72C1000.84 1137.48 1003.07 1139.72 1005.84 1139.72H1075.72C1078.49 1139.72 1080.72 1141.96 1080.72 1144.72V1177.13C1080.72 1179.89 1078.49 1182.13 1075.72 1182.13H1005.84C1003.07 1182.13 1000.84 1184.37 1000.84 1187.13V1210.45C1000.84 1213.21 1003.07 1215.45 1005.84 1215.45H1082.54C1085.3 1215.45 1087.54 1217.68 1087.54 1220.45V1252.85C1087.54 1255.61 1085.3 1257.85 1082.54 1257.85H953.209Z" fill="url(#paint5_linear_1302_538)"/>
<path d="M1140.34 1257.85C1137.58 1257.85 1135.34 1255.61 1135.34 1252.85V1069C1135.34 1066.24 1137.58 1064 1140.34 1064H1219.02C1233.4 1064 1245.99 1066.62 1256.78 1071.86C1267.57 1077.09 1275.97 1084.63 1281.96 1094.48C1287.96 1104.32 1290.95 1116.12 1290.95 1129.88C1290.95 1143.76 1287.86 1155.47 1281.68 1165C1275.56 1174.52 1266.94 1181.72 1255.84 1186.58C1244.79 1191.44 1231.89 1193.87 1217.12 1193.87H1172.15C1169.38 1193.87 1167.15 1191.63 1167.15 1188.87V1157.97C1167.15 1155.21 1169.38 1152.97 1172.15 1152.97H1206.52C1212.71 1152.97 1217.98 1152.22 1222.33 1150.7C1226.75 1149.13 1230.12 1146.63 1232.46 1143.23C1234.86 1139.82 1236.05 1135.37 1236.05 1129.88C1236.05 1124.33 1234.86 1119.81 1232.46 1116.34C1230.12 1112.81 1226.75 1110.22 1222.33 1108.58C1217.98 1106.88 1212.71 1106.03 1206.52 1106.03H1192.97C1190.21 1106.03 1187.97 1108.26 1187.97 1111.03V1252.85C1187.97 1255.61 1185.73 1257.85 1182.97 1257.85H1140.34ZM1245.96 1168.88C1247.79 1168.88 1249.47 1169.88 1250.35 1171.48L1293.36 1250.46C1295.18 1253.79 1292.77 1257.85 1288.97 1257.85H1243.22C1241.37 1257.85 1239.68 1256.83 1238.81 1255.2L1196.8 1176.22C1195.03 1172.89 1197.44 1168.88 1201.21 1168.88H1245.96Z" fill="url(#paint6_linear_1302_538)"/>
<path d="M466.15 260.711L466.403 263.313C467.022 265.831 468.063 268.042 469.525 269.944C471.044 271.847 472.817 273.441 474.842 274.728C476.868 276.015 479.118 276.995 481.594 277.666C484.069 278.282 486.573 278.589 489.105 278.589C491.637 278.589 494.028 278.449 496.278 278.17C498.585 277.834 500.808 277.414 502.946 276.911C505.084 276.351 507.165 275.736 509.191 275.064C511.216 274.337 513.27 273.581 515.352 272.798L524.635 290.005C521.428 291.963 518.474 293.642 515.774 295.041C513.129 296.384 510.457 297.503 507.756 298.398C505.056 299.293 502.186 299.937 499.148 300.329C496.11 300.776 492.565 301 488.514 301C480.919 301 474.167 299.769 468.259 297.307C462.352 294.789 457.373 291.403 453.322 287.151C449.327 282.898 446.261 277.918 444.123 272.21C442.041 266.503 441 260.459 441 254.08C441 247.701 442.097 241.714 444.291 236.118C446.542 230.523 449.693 225.654 453.744 221.514C457.795 217.317 462.633 214.015 468.259 211.609C473.886 209.203 480.131 208 486.995 208C493.859 208 499.936 209.147 505.224 211.441C510.569 213.68 515.07 216.813 518.727 220.842C522.385 224.815 525.198 229.515 527.167 234.943C529.136 240.315 530.205 246.106 530.374 252.318C530.543 253.717 530.627 255.116 530.627 256.514C530.683 257.857 530.655 259.256 530.543 260.711H466.15ZM486.32 228.984C483.169 228.984 480.469 229.375 478.218 230.159C476.024 230.886 474.167 231.921 472.648 233.264C471.129 234.551 469.919 236.034 469.019 237.713C468.119 239.392 467.416 241.154 466.909 243.001H503.452C503.058 241.098 502.496 239.308 501.764 237.629C501.033 235.95 500.02 234.468 498.726 233.181C497.432 231.894 495.772 230.886 493.747 230.159C491.777 229.375 489.302 228.984 486.32 228.984Z" fill="url(#paint7_linear_1302_538)"/>
<path d="M650.525 243.421H626.81V234.44C624.503 234.44 622.393 234.607 620.48 234.943C618.567 235.223 616.88 235.727 615.417 236.454C614.01 237.181 612.8 238.189 611.788 239.476C610.831 240.763 610.156 242.357 609.762 244.26V275.736H627.57V298.734H570.519V275.736H583.6V234.775H570.688V211.777H609.593V217.904C612.069 215.946 614.854 214.435 617.949 213.372C621.043 212.309 624.419 211.777 628.076 211.777C631.789 211.777 635.615 211.805 639.554 211.861C643.492 211.917 647.149 211.945 650.525 211.945V243.421Z" fill="url(#paint8_linear_1302_538)"/>
<path d="M771.857 243.421H748.142V234.44C745.836 234.44 743.726 234.607 741.813 234.943C739.9 235.223 738.212 235.727 736.749 236.454C735.343 237.181 734.133 238.189 733.12 239.476C732.164 240.763 731.489 242.357 731.095 244.26V275.736H748.902V298.734H691.851V275.736H704.932V234.775H692.02V211.777H730.926V217.904C733.402 215.946 736.187 214.435 739.281 213.372C742.375 212.309 745.751 211.777 749.408 211.777C753.122 211.777 756.948 211.805 760.886 211.861C764.824 211.917 768.482 211.945 771.857 211.945V243.421Z" fill="url(#paint9_linear_1302_538)"/>
<path d="M813.184 254.92C813.184 248.597 814.337 242.665 816.644 237.125C818.951 231.586 822.158 226.745 826.265 222.605C830.372 218.464 835.267 215.19 840.95 212.784C846.632 210.378 852.877 209.175 859.685 209.175C866.493 209.175 872.738 210.378 878.421 212.784C884.16 215.19 889.083 218.464 893.19 222.605C897.297 226.745 900.476 231.586 902.726 237.125C905.033 242.665 906.187 248.597 906.187 254.92C906.187 261.243 905.061 267.202 902.811 272.798C900.617 278.338 897.466 283.206 893.359 287.403C889.308 291.543 884.413 294.817 878.674 297.223C872.991 299.629 866.662 300.832 859.685 300.832C852.652 300.832 846.266 299.629 840.528 297.223C834.845 294.817 829.978 291.543 825.927 287.403C821.876 283.262 818.726 278.421 816.475 272.882C814.281 267.286 813.184 261.299 813.184 254.92ZM838.418 254.92C838.418 258.221 838.98 261.271 840.106 264.069C841.231 266.81 842.75 269.189 844.663 271.203C846.632 273.218 848.883 274.784 851.415 275.903C854.003 277.023 856.759 277.582 859.685 277.582C862.667 277.582 865.424 277.051 867.956 275.987C870.544 274.868 872.766 273.301 874.623 271.287C876.536 269.273 878.027 266.894 879.096 264.153C880.165 261.355 880.699 258.277 880.699 254.92C880.699 251.45 880.165 248.317 879.096 245.519C878.027 242.721 876.536 240.343 874.623 238.384C872.766 236.426 870.544 234.943 867.956 233.936C865.424 232.873 862.667 232.369 859.685 232.425C856.759 232.369 854.003 232.873 851.415 233.936C848.883 234.943 846.632 236.426 844.663 238.384C842.75 240.343 841.231 242.721 840.106 245.519C838.98 248.317 838.418 251.45 838.418 254.92Z" fill="url(#paint10_linear_1302_538)"/>
<path d="M1026 243.421H1002.29V234.44C999.978 234.44 997.868 234.607 995.956 234.943C994.043 235.223 992.355 235.727 990.892 236.454C989.485 237.181 988.276 238.189 987.263 239.476C986.306 240.763 985.631 242.357 985.237 244.26V275.736H1003.04V298.734H945.994V275.736H959.075V234.775H946.163V211.777H985.069V217.904C987.544 215.946 990.329 214.435 993.424 213.372C996.518 212.309 999.894 211.777 1003.55 211.777C1007.26 211.777 1011.09 211.805 1015.03 211.861C1018.97 211.917 1022.62 211.945 1026 211.945V243.421Z" fill="url(#paint11_linear_1302_538)"/>
<path d="M399.508 834.771C405.319 840.596 405.353 850.015 399.584 855.882L348.12 908.215C342.277 914.157 332.711 914.197 326.818 908.305L33.6073 615.107C27.7491 609.249 27.7491 599.751 33.6073 593.893L326.774 300.74C332.684 294.83 342.279 294.886 348.114 300.869C366.271 319.486 387.395 341.146 399.676 353.739C405.409 359.617 405.331 368.994 399.525 374.8L180.408 593.907C174.555 599.759 174.549 609.247 180.395 615.107L399.508 834.771Z" fill="url(#paint12_linear_1302_538)"/>
<path d="M1067.49 834.771C1061.68 840.596 1061.65 850.015 1067.42 855.882L1118.88 908.215C1124.72 914.157 1134.29 914.197 1140.18 908.305L1433.39 615.107C1439.25 609.249 1439.25 599.751 1433.39 593.893L1140.23 300.74C1134.32 294.83 1124.72 294.886 1118.89 300.869C1100.73 319.486 1079.61 341.146 1067.32 353.739C1061.59 359.617 1061.67 368.994 1067.48 374.8L1286.59 593.907C1292.44 599.759 1292.45 609.247 1286.61 615.107L1067.49 834.771Z" fill="url(#paint13_linear_1302_538)"/>
<defs>
<linearGradient id="paint0_linear_1302_538" x1="1869.03" y1="480.419" x2="1869.03" y2="1094.42" gradientUnits="userSpaceOnUse">
<stop stop-color="#FF3D9A"/>
<stop offset="1" stop-color="#FB5A00"/>
</linearGradient>
<linearGradient id="paint1_linear_1302_538" x1="733.695" y1="1064" x2="733.695" y2="1257.85" gradientUnits="userSpaceOnUse">
<stop stop-color="#FF7A00"/>
<stop offset="1" stop-color="#FF007A"/>
</linearGradient>
<linearGradient id="paint2_linear_1302_538" x1="733.695" y1="1064" x2="733.695" y2="1257.85" gradientUnits="userSpaceOnUse">
<stop stop-color="#FF7A00"/>
<stop offset="1" stop-color="#FF007A"/>
</linearGradient>
<linearGradient id="paint3_linear_1302_538" x1="733.695" y1="1064" x2="733.695" y2="1257.85" gradientUnits="userSpaceOnUse">
<stop stop-color="#FF7A00"/>
<stop offset="1" stop-color="#FF007A"/>
</linearGradient>
<linearGradient id="paint4_linear_1302_538" x1="733.695" y1="1064" x2="733.695" y2="1257.85" gradientUnits="userSpaceOnUse">
<stop stop-color="#FF7A00"/>
<stop offset="1" stop-color="#FF007A"/>
</linearGradient>
<linearGradient id="paint5_linear_1302_538" x1="733.695" y1="1064" x2="733.695" y2="1257.85" gradientUnits="userSpaceOnUse">
<stop stop-color="#FF7A00"/>
<stop offset="1" stop-color="#FF007A"/>
</linearGradient>
<linearGradient id="paint6_linear_1302_538" x1="733.695" y1="1064" x2="733.695" y2="1257.85" gradientUnits="userSpaceOnUse">
<stop stop-color="#FF7A00"/>
<stop offset="1" stop-color="#FF007A"/>
</linearGradient>
<linearGradient id="paint7_linear_1302_538" x1="733.5" y1="208" x2="733.5" y2="301" gradientUnits="userSpaceOnUse">
<stop stop-color="#FF7A00"/>
<stop offset="1" stop-color="#FF007A"/>
</linearGradient>
<linearGradient id="paint8_linear_1302_538" x1="733.5" y1="208" x2="733.5" y2="301" gradientUnits="userSpaceOnUse">
<stop stop-color="#FF7A00"/>
<stop offset="1" stop-color="#FF007A"/>
</linearGradient>
<linearGradient id="paint9_linear_1302_538" x1="733.5" y1="208" x2="733.5" y2="301" gradientUnits="userSpaceOnUse">
<stop stop-color="#FF7A00"/>
<stop offset="1" stop-color="#FF007A"/>
</linearGradient>
<linearGradient id="paint10_linear_1302_538" x1="733.5" y1="208" x2="733.5" y2="301" gradientUnits="userSpaceOnUse">
<stop stop-color="#FF7A00"/>
<stop offset="1" stop-color="#FF007A"/>
</linearGradient>
<linearGradient id="paint11_linear_1302_538" x1="733.5" y1="208" x2="733.5" y2="301" gradientUnits="userSpaceOnUse">
<stop stop-color="#FF7A00"/>
<stop offset="1" stop-color="#FF007A"/>
</linearGradient>
<linearGradient id="paint12_linear_1302_538" x1="216.5" y1="290" x2="216.5" y2="919" gradientUnits="userSpaceOnUse">
<stop stop-color="#FF7A00"/>
<stop offset="1" stop-color="#FF007A"/>
</linearGradient>
<linearGradient id="paint13_linear_1302_538" x1="1250.5" y1="290" x2="1250.5" y2="919" gradientUnits="userSpaceOnUse">
<stop stop-color="#FF7A00"/>
<stop offset="1" stop-color="#FF007A"/>
</linearGradient>
</defs>
</svg>
